<svg width="1093" height="131" fill="none" xmlns="http://www.w3.org/2000/svg"><path d="M603.11 129.215V4.283h24.396l45.23 73.888-15.848-.178 45.942-73.71h23.505v124.932h-26.176V86.917c0-10.828.237-20.584.712-29.27a304.232 304.232 0 012.849-25.7l3.028 8.388-36.505 56.576h-11.931l-35.614-56.22 2.849-8.744c1.425 7.972 2.375 16.181 2.849 24.63.594 8.447.891 18.56.891 30.34v42.298H603.11zM497.2 129.215V4.283h84.049v23.559h-57.873v77.814h59.12v23.559H497.2zm12.465-52.293V54.078h63.037v22.844h-63.037zM432.411 131c-11.634 0-21.606-2.082-29.916-6.247-8.191-4.283-15.255-10.47-21.191-18.561l16.739-18.918c5.817 8.09 11.575 13.623 17.273 16.598 5.817 2.855 12.049 4.283 18.697 4.283 3.681 0 6.945-.535 9.794-1.606 2.968-1.071 5.283-2.558 6.945-4.462 1.781-1.904 2.671-4.105 2.671-6.603 0-1.904-.415-3.63-1.246-5.176-.831-1.666-2.019-3.094-3.562-4.284-1.543-1.308-3.383-2.439-5.52-3.39-2.137-1.071-4.511-1.964-7.123-2.678a115.308 115.308 0 00-8.547-1.963c-6.648-1.428-12.465-3.272-17.451-5.533-4.986-2.26-9.141-4.997-12.465-8.21-3.324-3.212-5.817-6.9-7.479-11.065-1.543-4.283-2.315-9.043-2.315-14.278 0-7.377 2.077-13.802 6.232-19.275 4.155-5.592 9.676-9.935 16.561-13.029 6.885-3.212 14.483-4.818 22.793-4.818 11.278 0 20.538 1.903 27.779 5.71 7.36 3.808 13.237 9.162 17.629 16.063l-17.095 16.777c-3.68-5.116-7.894-8.983-12.643-11.6-4.748-2.618-9.853-3.927-15.314-3.927-3.799 0-7.182.535-10.15 1.606-2.849.952-5.045 2.44-6.588 4.462-1.544 1.904-2.315 4.164-2.315 6.782 0 2.142.534 4.045 1.602 5.711 1.069 1.666 2.553 3.153 4.452 4.462 2.018 1.19 4.452 2.26 7.301 3.212 2.849.952 5.995 1.726 9.438 2.32 6.529 1.31 12.405 3.094 17.629 5.355 5.223 2.142 9.675 4.76 13.355 7.853 3.799 3.093 6.707 6.663 8.726 10.708 2.018 4.046 3.027 8.567 3.027 13.564 0 8.448-2.018 15.646-6.055 21.596-4.036 5.949-9.616 10.53-16.738 13.742-7.123 3.213-15.433 4.819-24.93 4.819zM317.537 130.286c-10.09 0-19.113-2.082-27.066-6.246-7.836-4.284-14.009-10.114-18.52-17.491-4.511-7.496-6.766-15.944-6.766-25.343V4.105h26.71V79.6c0 4.997 1.128 9.518 3.384 13.564a27.652 27.652 0 009.437 9.459c3.918 2.379 8.192 3.569 12.821 3.569 4.868 0 9.26-1.19 13.178-3.569 4.036-2.38 7.182-5.533 9.437-9.46 2.375-4.045 3.562-8.566 3.562-13.563V4.105h25.82v77.1c0 9.4-2.256 17.848-6.767 25.344-4.392 7.377-10.506 13.207-18.341 17.491-7.835 4.164-16.798 6.246-26.889 6.246zM185.982 131c-9.141 0-17.629-1.606-25.464-4.819-7.716-3.212-14.424-7.674-20.122-13.385-5.58-5.831-9.972-12.672-13.177-20.525-3.087-7.853-4.63-16.48-4.63-25.879 0-9.28 1.543-17.847 4.63-25.7 3.205-7.853 7.597-14.694 13.177-20.524 5.698-5.83 12.406-10.352 20.122-13.565 7.835-3.212 16.323-4.818 25.464-4.818 9.141 0 17.51 1.606 25.108 4.818 7.716 3.213 14.424 7.734 20.122 13.565 5.698 5.83 10.091 12.73 13.177 20.703 3.206 7.852 4.808 16.36 4.808 25.521 0 9.28-1.602 17.848-4.808 25.7-3.086 7.853-7.479 14.695-13.177 20.525-5.698 5.83-12.406 10.352-20.122 13.564-7.598 3.213-15.967 4.819-25.108 4.819zm0-25.343c5.223 0 10.031-.952 14.424-2.856 4.392-2.023 8.191-4.76 11.396-8.21 3.324-3.57 5.877-7.734 7.657-12.493 1.781-4.76 2.671-9.995 2.671-15.706 0-5.592-.89-10.768-2.671-15.527-1.78-4.76-4.333-8.924-7.657-12.493a32.532 32.532 0 00-11.396-8.21c-4.393-2.023-9.201-3.034-14.424-3.034-5.223 0-10.091 1.011-14.602 3.034-4.392 1.904-8.25 4.64-11.574 8.21-3.206 3.45-5.699 7.615-7.479 12.493-1.781 4.76-2.671 9.995-2.671 15.706 0 7.496 1.543 14.218 4.629 20.167 3.206 5.83 7.479 10.47 12.822 13.921 5.46 3.332 11.752 4.998 18.875 4.998zM78.707 129.215V4.283h26.711v124.932h-26.71zm-78.707 0V4.283h26.71v124.932H0zm10.862-49.973v-24.63h81.379v24.63H10.862zM981.172 129.216V4.284h51.288c9.02 0 17.27 1.546 24.75 4.64 7.48 2.975 13.89 7.258 19.23 12.85 5.34 5.473 9.44 12.077 12.29 19.81 2.85 7.616 4.27 16.004 4.27 25.166 0 9.28-1.42 17.728-4.27 25.343-2.85 7.615-6.95 14.218-12.29 19.811-5.34 5.473-11.75 9.756-19.23 12.85-7.36 2.974-15.61 4.462-24.75 4.462h-51.288zm26.708-19.633l-2.85-4.461h26.54c5.34 0 10.09-.893 14.24-2.678 4.28-1.784 7.9-4.342 10.86-7.674 3.09-3.45 5.41-7.496 6.95-12.136 1.54-4.76 2.31-10.054 2.31-15.884s-.77-11.066-2.31-15.706c-1.54-4.76-3.86-8.805-6.95-12.136-2.96-3.45-6.58-6.068-10.86-7.853-4.15-1.785-8.9-2.677-14.24-2.677h-27.07l3.38-4.105v85.31z" fill="white"/><path fill-rule="evenodd" clip-rule="evenodd" d="M803.987 0c-9.141 0-17.629 1.606-25.464 4.819-7.717 3.212-14.424 7.674-20.122 13.385-5.58 5.83-9.972 12.672-13.178 20.525-3.086 7.853-4.629 16.48-4.629 25.879 0 9.28 1.543 17.847 4.629 25.7 3.206 7.853 7.598 14.694 13.178 20.524 5.698 5.831 12.405 10.352 20.122 13.565 7.835 3.212 16.323 4.818 25.464 4.818 9.141 0 17.51-1.606 25.108-4.818 7.716-3.213 14.423-7.734 20.122-13.565 5.698-5.83 10.09-12.73 13.177-20.703 3.19-7.814 4.792-16.277 4.808-25.387h.181l-.001-.313c0-7.496 1.543-14.218 4.629-20.167 3.206-5.83 7.479-10.47 12.822-13.921 5.46-3.332 11.752-4.998 18.875-4.998 5.223 0 10.031.952 14.424 2.856 4.392 2.023 8.191 4.76 11.396 8.21 3.324 3.57 5.877 7.734 7.657 12.493 1.781 4.76 2.671 9.995 2.671 15.706 0 5.592-.89 10.768-2.671 15.527-1.78 4.76-4.333 8.924-7.657 12.493a32.533 32.533 0 01-11.396 8.21c-4.393 2.023-9.201 3.034-14.424 3.034-5.172 0-9.994-.991-14.468-2.974-3.315 8.495-7.801 15.967-13.457 22.414.808.376 1.629.738 2.461 1.085 7.835 3.212 16.323 4.818 25.464 4.818 9.141 0 17.51-1.606 25.108-4.818 7.716-3.213 14.424-7.734 20.122-13.565 5.698-5.83 10.091-12.73 13.177-20.703 3.206-7.852 4.808-16.36 4.808-25.521 0-9.28-1.602-17.848-4.808-25.7-3.086-7.853-7.479-14.695-13.177-20.525-5.698-5.83-12.406-10.352-20.122-13.564C921.218 1.606 912.849 0 903.708 0s-17.629 1.606-25.464 4.819c-7.716 3.212-14.424 7.674-20.122 13.385-5.58 5.83-9.972 12.672-13.177 20.525-3.087 7.853-4.63 16.48-4.63 25.879 0 .718.009 1.432.028 2.141h-.252c-.2 4.778-1.076 9.24-2.627 13.386-1.781 4.76-4.333 8.924-7.657 12.493a32.528 32.528 0 01-11.397 8.21c-4.392 2.023-9.2 3.034-14.423 3.034-5.224 0-10.091-1.011-14.602-3.034-4.393-1.904-8.251-4.64-11.575-8.21-3.205-3.45-5.698-7.615-7.479-12.493-1.78-4.76-2.671-9.995-2.671-15.706 0-7.496 1.544-14.218 4.63-20.167 3.205-5.83 7.479-10.47 12.821-13.921 5.461-3.332 11.753-4.998 18.876-4.998 5.223 0 10.031.952 14.423 2.856h.001c3.453-8.258 7.897-15.661 13.33-22.209a65.273 65.273 0 00-2.646-1.171C821.497 1.606 813.128 0 803.987 0z" fill="white"/></svg>